PathFileType	4	(X/Y/Z)	Apose_0-50.trc
DataRate	CameraRate	NumFrames	NumMarkers	Units	OrigDataRate	OrigDataStartFrame	OrigNumFrames
30	30	6	22	m	30	10	50
Frame#	Time	Hip			RHip			RKnee			RAnkle			RBigToe			RSmallToe			RHeel			LHip			LKnee			LAnkle			LBigToe			LSmallToe			LHeel			Neck			Head			Nose			RShoulder			RElbow			RWrist			LShoulder			LElbow			LWrist		
		X1	Y1	Z1	X2	Y2	Z2	X3	Y3	Z3	X4	Y4	Z4	X5	Y5	Z5	X6	Y6	Z6	X7	Y7	Z7	X8	Y8	Z8	X9	Y9	Z9	X10	Y10	Z10	X11	Y11	Z11	X12	Y12	Z12	X13	Y13	Z13	X14	Y14	Z14	X15	Y15	Z15	X16	Y16	Z16	X17	Y17	Z17	X18	Y18	Z18	X19	Y19	Z19	X20	Y20	Z20	X21	Y21	Z21	X22	Y22	Z22
11	0.36666666666666664	0.03010897041614408	0.9227862387531597	0.36054486501583416	0.017891995974338062	0.8913693778581769	0.46524157455608267	-0.0014092954864573877	0.5095147111018364	0.49869226902898844	-0.0024281134585177264	0.1100677802600687	0.5159384955631373	0.20050509335311498	0.043061426892985595	0.5669901399470496	0.15054360711866477	0.023366155349635737	0.626068853769772	-0.03304633300920466	0.03633028361314999	0.49790565437257134	0.021290642072328655	0.8931991373133695	0.24617039397024634	0.005998107527876293	0.5121814412945479	0.22838168508455328	0.00696999185710886	0.11567528880683065	0.20839079915546124	0.21662292918035456	0.044579599985282166	0.19229807181700795	0.1656251959664704	0.03432661179860702	0.12703673696360468	-0.053081145135104424	0.04217949207061215	0.2061415024136809	0.06498055221071791	1.5643866815815521	0.3471258576517773	0.32650084451389844	1.7633926064040075	0.28240298003369196	0.31817010643769844	1.6052511547054187	0.3350869574229203	0.018186397711470043	1.4949936274236866	0.5353470325951252	0.07578670469845315	1.2368293180026577	0.7238529387867035	0.12146172002426087	1.043993103958394	0.8980158231042654	0.01884357115158581	1.4798596856413087	0.15329977230403752	0.01549158022338117	1.2268587351004656	0.00703365052448689	0.06226410753186605	1.0172538449126376	-0.14382597082676477
12	0.4	0.031352243982035045	0.9227613255779097	0.35953287684042523	0.017613709837580295	0.8901142591795647	0.4649287004933511	0.0012486305802657804	0.5090257612030785	0.4988894138107351	-0.003385534417133632	0.11107902973661724	0.5172138166542238	0.1999924987487166	0.03209557990099757	0.5687357304031326	0.15349906100885036	0.025031460360321854	0.6243977442106219	-0.034296434773108515	0.035835786441220395	0.49913701222483864	0.023554653401958742	0.8893392430577409	0.2459304468830892	0.005763454425501752	0.5120145936984176	0.22648289917211742	0.0017369111234597728	0.12295182209830124	0.20799741067184596	0.21761564278568957	0.04459619097191511	0.19303913163871445	0.1668743081607318	0.03431129437783145	0.12782586345815947	-0.04245942383083175	0.06003939994909708	0.19546556150940314	0.05915938976608675	1.5651363578993323	0.35132329187997907	0.3294670794116849	1.764440160688785	0.28210307172324806	0.3176457772482817	1.6045589407921674	0.3355454423439239	0.016555657999027234	1.4938913980972157	0.5315690443227699	0.053090073004951506	1.2339742042842812	0.7174111923631199	0.11807626521239785	1.044202782827204	0.8960261651726078	0.017899699232722277	1.4775045184324045	0.15288280804874022	0.017441816562662287	1.2257784920445154	0.004963610053760071	0.05263605033637252	1.0074853128715304	-0.14788463394506374
13	0.43333333333333335	0.0296673953924607	0.9217067024039849	0.3586768670927624	0.022125392676267525	0.8830077106796723	0.46366507054154915	0.0006506092010024023	0.5089573770669591	0.5005665745554535	-0.005617173714164329	0.10819063944569172	0.5173656502924968	0.20313848773264248	0.03864604524576089	0.5675465564570549	0.15069096049878622	0.021367135909581933	0.6265674617153195	-0.03523566864288689	0.03783952551321272	0.4963174483372454	0.022969343824047906	0.8825661620834755	0.24743157719562167	0.006040354817630699	0.5089221962043057	0.22447370774979336	-2.6547679031790904e-05	0.12456654493234436	0.20731809850666183	0.2155818347459379	0.043484461658344006	0.19110536312930437	0.1636030509554274	0.032005216517194984	0.12645881030373737	-0.04228424219750012	0.05911840161019667	0.1998548222327724	0.05258904292101473	1.5699905480754468	0.35030105971880965	0.2575885982149851	1.749332138360636	0.3417217130648082	0.31895077494927293	1.6025115817269338	0.33563434147022525	0.021995248320056563	1.49294372769659	0.5364373585948902	0.05449442879113142	1.23535935275226	0.7181479674639923	0.11757488505275179	1.0470358685791856	0.8936769891093075	0.0124147053867896	1.4767976175261082	0.15148117867369681	0.01737422721288667	1.2241024095388007	0.005346772025932095	0.06557283850326587	1.0184267299812566	-0.14076658604953654
14	0.4666666666666667	0.030638061854677663	0.9206072640084242	0.35735814852894343	0.02079437496416835	0.8833988779981192	0.46313073533605353	-0.0013765438497048389	0.5094766171211454	0.49823504048442624	-0.0056994618075966175	0.11061576387533302	0.5178869748528491	0.2016857491101468	0.03739129583815036	0.5688162074092792	0.1470463680736217	0.032027838642777556	0.6283943520995902	-0.03472455557035929	0.03916579070636422	0.4984499573568769	0.02252588790191842	0.8835351058813276	0.24658858433407038	0.004492275167983947	0.508506931871776	0.22554894822690727	0.001224575030562158	0.1222055326291624	0.20721813574549014	0.2164516756738425	0.04464267795714287	0.19333623466430352	0.16699801001687553	0.03363034358505091	0.12704025185406884	-0.05155534420580569	0.04108576295766376	0.20795484489963956	0.05332550340588797	1.5706181118969302	0.34969572652734127	0.25932548688121965	1.7492040661632833	0.3429992107694802	0.31678232485341223	1.603608490536707	0.33364638726515705	0.019792323404525764	1.4926958536970516	0.5335534421962733	0.05109126774683888	1.234269721760783	0.7185318352080013	0.1176666416505591	1.0457485599726577	0.8926198775936277	0.013122654833934056	1.477872875167207	0.14984678759957587	0.01643571000404592	1.2246201524629219	0.005293518921787159	0.0656917528366827	1.0186998941078649	-0.13991269636381864
15	0.5	0.031451734606740306	0.9209153994055974	0.3566772254372874	0.02075588512040284	0.8837696417586303	0.4625942404936298	-0.0022759095773420444	0.508341705580661	0.49807531791002124	-0.00546466393001977	0.11278888751281628	0.5169399161818938	0.2020261466236997	0.03861862437211114	0.567516332181515	0.14786117136114602	0.03141650457766317	0.6293944063059004	-0.03659643213288527	0.040066688855094006	0.497868467217608	0.022122101939153326	0.8836368269390181	0.24418375230230016	0.006295093457517032	0.5080395867382165	0.22319939513750828	0.0005231299105093258	0.12239446441061191	0.20702783192321803	0.2149638309131839	0.04490072943000439	0.1932794850451455	0.1657302963814156	0.033983604135624464	0.12663372225748304	-0.05293243601911402	0.03969704574517124	0.20789241093773891	0.053317507930259245	1.5697070621550124	0.35114905653078954	0.25776322958274045	1.7504762821314963	0.34264499042888213	0.31728832809324525	1.6036453778516595	0.3340148605624246	0.017833329208453548	1.4945030719763321	0.5306468465839741	0.05120854117915888	1.2361363842298358	0.716090629163908	0.11536106183961067	1.0468743259486097	0.8917104268184071	0.013016817321311993	1.476752797391933	0.15150570878370592	0.018237472716922703	1.2232389242711021	0.006323541025004009	0.06820304622373217	1.0174869417158088	-0.14072297107175433
16	0.5333333333333333	0.030876353963373612	0.9221631239000024	0.35761095672467547	0.02132917029812192	0.8865398535130006	0.4614769588209266	-0.0032509882878214943	0.5072249226268396	0.4969882542233785	-0.0044529207624150035	0.11319869557933863	0.5159553800812331	0.20099506480833043	0.031394092545007364	0.5701985239746096	0.15429105956953057	0.023150475129466462	0.6269251053022723	-0.03536635553010313	0.03832048961507611	0.49888681204019547	0.024019367984124046	0.8883284583548331	0.24369685818359318	0.0036688696571376	0.5111580087102141	0.22377673746782767	-0.0002241431501344337	0.12531013778166655	0.20612545920972586	0.21882095141503602	0.04507103543783349	0.19065889406409017	0.1666503625148557	0.032868886945952414	0.12874813698828722	-0.04090449992893303	0.05942923416303012	0.19510239656494355	0.04946600216256441	1.5683315545583039	0.35058287827130297	0.25510972531118786	1.7519248699011936	0.34096530631625416	0.31270770846538126	1.606849167983697	0.33133379233424787	0.016266800325539097	1.493898997605795	0.53045521245529	0.051245003766315876	1.234255887851612	0.7157816449379278	0.11613869206520427	1.0457524144806458	0.891928006946931	0.015383770434748593	1.4752476294829329	0.1514578406667947	0.020719123686335102	1.2215880041716625	0.004847837012586117	0.07296433119470316	1.0175898190304649	-0.1410023167929657
